<svg width="1000" height="1000" viewBox="0 0 1000 1000" fill="none" xmlns="http://www.w3.org/2000/svg">
<rect width="1000" height="1000" fill="white"/>
<path d="M305 210.465C305 204.133 310.133 199 316.465 199C411.442 199 488.436 275.994 488.436 370.971V789.684C488.436 796.015 483.303 801.148 476.971 801.148C381.994 801.148 305 724.154 305 629.177V210.465Z" fill="#111111"/>
<path d="M519.539 486.718C519.539 480.662 524.449 475.752 530.505 475.752H532.3C622.156 475.752 695 548.595 695 638.452C695 728.308 622.156 801.152 532.3 801.152H530.505C524.449 801.152 519.539 796.242 519.539 790.185V486.718Z" fill="#111111"/>
</svg>
